<svg fill="none" width="48" height="48" viewBox="0 0 48 48" xmlns="http://www.w3.org/2000/svg">
  <path fill="black" fill-rule="evenodd" clip-rule="evenodd" d="M37.1905 0C42.7922 0 47.3333 4.60507 47.3333 10.2857V37.7143C47.3333 43.3949 42.7922 48 37.1905 48H10.1429C4.54111 48 0 43.3949 0 37.7143V10.2857C0 4.60507 4.54111 0 10.1429 0H37.1905ZM21.5058 17.1429H24.7474V31.4286H21.5058V23.1224L17.8388 29.1837H17.4741L13.8071 23.1224V31.4286H10.5655V17.1429H13.8071L17.6564 23.4898L21.5058 17.1429ZM33.7289 22.1837V21.2245H36.7679V31.4286H33.7289V30.4694C33.0603 31.2449 32.0676 31.7143 30.7102 31.7143C28.0561 31.7143 25.868 29.3673 25.868 26.3265C25.868 23.2857 28.0561 20.9388 30.7102 20.9388C32.0676 20.9388 33.0603 21.4082 33.7289 22.1837ZM28.907 26.3265C28.907 27.8571 29.92 28.8163 31.3179 28.8163C32.7159 28.8163 33.7289 27.8571 33.7289 26.3265C33.7289 24.7959 32.7159 23.8367 31.3179 23.8367C29.92 23.8367 28.907 24.7959 28.907 26.3265Z"></path>
</svg>
